<?xml version="1.0" encoding="UTF-8" standalone="no"?>
<svg
   xmlns:dc="http://purl.org/dc/elements/1.1/"
   xmlns:cc="http://creativecommons.org/ns#"
   xmlns:rdf="http://www.w3.org/1999/02/22-rdf-syntax-ns#"
   xmlns:svg="http://www.w3.org/2000/svg"
   xmlns="http://www.w3.org/2000/svg"
   id="svg9224"
   version="1.1"
   viewBox="0 0 24.629988 26.657685"
   height="26.657684mm"
   width="24.629988mm">
  <defs
     id="defs9218" />
  <metadata
     id="metadata9221">
    <rdf:RDF>
      <cc:Work
         rdf:about="">
        <dc:format>image/svg+xml</dc:format>
        <dc:type
           rdf:resource="http://purl.org/dc/dcmitype/StillImage" />
        <dc:title></dc:title>
      </cc:Work>
    </rdf:RDF>
  </metadata>
  <g
     transform="translate(-103.46089,-145.79559)"
     id="layer1">
    <g
       id="g11080"
       transform="matrix(0.35277777,0,0,-0.35277777,88.783798,223.5074)">
      <g
         id="g294"
         transform="translate(45.6895,148.8047)">
        <path
           d="M 0,0 V 41.124 H 61.647 Z"
           style="fill:#abe7e5;fill-opacity:1;fill-rule:nonzero;stroke:none"
           id="path296" />
      </g>
      <path
         d="m 46.939,150.521 h 59.147 v 59.147 H 46.939 Z m 60.398,-2.5 H 45.689 c -0.69,0 -1.25,0.56 -1.25,1.25 v 61.648 c 0,0.69 0.56,1.25 1.25,1.25 h 61.648 c 0.69,0 1.25,-0.56 1.25,-1.25 v -61.648 c 0,-0.69 -0.56,-1.25 -1.25,-1.25"
         style="fill:#47b9bc;fill-opacity:1;fill-rule:nonzero;stroke:none"
         id="path298" />
      <path
         d="m 46.939,150.055 h 59.147 v 38.624 H 46.939 Z m 60.398,-2.5 H 45.689 c -0.69,0 -1.25,0.559 -1.25,1.25 v 41.124 c 0,0.69 0.56,1.25 1.25,1.25 h 61.648 c 0.69,0 1.25,-0.56 1.25,-1.25 v -41.124 c 0,-0.691 -0.56,-1.25 -1.25,-1.25"
         style="fill:#47b9bc;fill-opacity:1;fill-rule:nonzero;stroke:none"
         id="path300" />
      <g
         id="g302"
         transform="translate(59.9434,204.2295)">
        <path
           d="m 0,0 c -2.075,0 -3.763,-1.688 -3.763,-3.764 0,-2.075 1.688,-3.763 3.763,-3.763 2.075,0 3.764,1.688 3.764,3.763 C 3.764,-1.688 2.075,0 0,0 m 0,-10.027 c -3.454,0 -6.263,2.809 -6.263,6.263 0,3.454 2.809,6.264 6.263,6.264 3.454,0 6.264,-2.81 6.264,-6.264 0,-3.454 -2.81,-6.263 -6.264,-6.263"
           style="fill:#47b9bc;fill-opacity:1;fill-rule:nonzero;stroke:none"
           id="path304" />
      </g>
      <g
         id="g306"
         transform="translate(59.9434,198.4658)">
        <path
           d="m 0,0 c -1.104,0 -2,0.896 -2,2 v 14.985 c 0,1.105 0.896,2 2,2 1.104,0 2,-0.895 2,-2 V 2 C 2,0.896 1.104,0 0,0"
           style="fill:#47b9bc;fill-opacity:1;fill-rule:nonzero;stroke:none"
           id="path308" />
      </g>
      <g
         id="g310"
         transform="translate(76.5132,204.2295)">
        <path
           d="m 0,0 c -2.075,0 -3.764,-1.688 -3.764,-3.764 0,-2.075 1.689,-3.763 3.764,-3.763 2.075,0 3.764,1.688 3.764,3.763 C 3.764,-1.688 2.075,0 0,0 m 0,-10.027 c -3.454,0 -6.264,2.809 -6.264,6.263 0,3.454 2.81,6.264 6.264,6.264 3.454,0 6.264,-2.81 6.264,-6.264 0,-3.454 -2.81,-6.263 -6.264,-6.263"
           style="fill:#47b9bc;fill-opacity:1;fill-rule:nonzero;stroke:none"
           id="path312" />
      </g>
      <g
         id="g314"
         transform="translate(76.5132,198.4658)">
        <path
           d="m 0,0 c -1.104,0 -2,0.896 -2,2 v 14.985 c 0,1.105 0.896,2 2,2 1.104,0 2,-0.895 2,-2 V 2 C 2,0.896 1.104,0 0,0"
           style="fill:#47b9bc;fill-opacity:1;fill-rule:nonzero;stroke:none"
           id="path316" />
      </g>
      <g
         id="g318"
         transform="translate(93.082,204.2295)">
        <path
           d="m 0,0 c -2.075,0 -3.764,-1.688 -3.764,-3.764 0,-2.075 1.689,-3.763 3.764,-3.763 2.075,0 3.763,1.688 3.763,3.763 C 3.763,-1.688 2.075,0 0,0 m 0,-10.027 c -3.454,0 -6.264,2.809 -6.264,6.263 0,3.454 2.81,6.264 6.264,6.264 3.453,0 6.263,-2.81 6.263,-6.264 0,-3.454 -2.81,-6.263 -6.263,-6.263"
           style="fill:#47b9bc;fill-opacity:1;fill-rule:nonzero;stroke:none"
           id="path320" />
      </g>
      <g
         id="g322"
         transform="translate(93.082,198.4658)">
        <path
           d="m 0,0 c -1.104,0 -2,0.896 -2,2 v 14.985 c 0,1.105 0.896,2 2,2 1.104,0 2,-0.895 2,-2 V 2 C 2,0.896 1.104,0 0,0"
           style="fill:#47b9bc;fill-opacity:1;fill-rule:nonzero;stroke:none"
           id="path324" />
      </g>
      <g
         id="g326"
         transform="translate(74.9404,171.0557)">
        <path
           d="m 0,0 c 0.76,-0.943 1.282,-1.729 1.564,-2.354 0.355,-0.798 0.534,-1.716 0.534,-2.759 0,-2.122 -0.694,-3.998 -2.079,-5.629 -1.889,-2.233 -4.298,-3.349 -7.229,-3.349 -1.582,0 -3.082,0.384 -4.498,1.15 -1.417,0.766 -2.553,1.813 -3.412,3.136 -0.651,1.006 -0.975,2.043 -0.975,3.11 0,1.201 0.472,2.213 1.417,3.035 0.772,0.674 1.691,1.012 2.759,1.012 1.422,0 2.483,-0.547 3.182,-1.638 0.208,-0.319 0.417,-0.644 0.626,-0.976 0.269,-0.331 0.582,-0.496 0.938,-0.496 0.723,0 1.085,0.386 1.085,1.159 0,0.491 -0.332,0.919 -0.994,1.287 -0.87,0.492 -1.403,0.872 -1.6,1.141 -0.319,0.417 -0.478,0.944 -0.478,1.582 0,0.797 0.252,1.435 0.754,1.913 0.135,0.135 0.625,0.399 1.471,0.791 0.479,0.221 0.718,0.558 0.718,1.012 0,0.736 -0.349,1.103 -1.048,1.103 -0.368,0 -0.767,-0.312 -1.196,-0.937 -0.823,-1.178 -1.919,-1.766 -3.293,-1.766 -1.14,0 -2.105,0.385 -2.897,1.159 -0.791,0.773 -1.187,1.722 -1.187,2.85 0,1.902 0.963,3.545 2.888,4.931 1.766,1.274 3.631,1.912 5.592,1.912 2.343,0 4.415,-0.784 6.218,-2.354 C 0.724,8.395 1.656,6.42 1.656,4.102 1.656,3.207 1.497,2.439 1.178,1.803 l -0.7,-1.085 z"
           style="fill:#47b9bc;fill-opacity:1;fill-rule:nonzero;stroke:none"
           id="path328" />
      </g>
      <g
         id="g330"
         transform="translate(84.6714,175.2129)">
        <path
           d="M 0,0 H -1.374 C -2.156,0 -2.81,0.185 -3.335,0.552 -4.3,1.226 -4.782,2.249 -4.782,3.624 c 0,1.275 0.423,2.256 1.269,2.942 0.785,0.652 1.827,0.976 3.127,0.976 h 4.121 c 3.053,0 4.58,-1.643 4.58,-4.931 v -15.727 c 0,-1.949 -0.72,-3.323 -2.157,-4.12 -0.627,-0.343 -1.285,-0.515 -1.973,-0.515 -1.315,0 -2.397,0.515 -3.244,1.545 C 0.313,-15.446 0,-14.422 0,-13.134 Z"
           style="fill:#47b9bc;fill-opacity:1;fill-rule:nonzero;stroke:none"
           id="path332" />
      </g>
    </g>
  </g>
</svg>
